<svg width="954" height="73" viewBox="0 0 954 73" fill="none" xmlns="http://www.w3.org/2000/svg">
<rect y="0.421875" width="954" height="72" rx="11" fill="white"/>
<rect x="893" y="10.4219" width="51" height="52" rx="10" fill="#1B1B1B"/>
<circle cx="915" cy="32.4219" r="9.5" stroke="white"/>
<line x1="923.354" y1="41.0683" x2="932.354" y2="50.0683" stroke="white"/>
<path d="M36.12 41.4219V29.9019H40.568C40.68 29.9019 40.8053 29.9072 40.944 29.9179C41.088 29.9232 41.232 29.9392 41.376 29.9659C41.9787 30.0565 42.488 30.2672 42.904 30.5979C43.3253 30.9232 43.6427 31.3339 43.856 31.8299C44.0747 32.3259 44.184 32.8752 44.184 33.4779C44.184 34.3472 43.9547 35.1019 43.496 35.7419C43.0373 36.3819 42.3813 36.7845 41.528 36.9499L41.12 37.0459H37.296V41.4219H36.12ZM43.096 41.4219L40.824 36.7339L41.952 36.3019L44.448 41.4219H43.096ZM37.296 35.9259H40.536C40.632 35.9259 40.744 35.9205 40.872 35.9099C41 35.8992 41.1253 35.8805 41.248 35.8539C41.6427 35.7685 41.9653 35.6059 42.216 35.3659C42.472 35.1259 42.6613 34.8405 42.784 34.5099C42.912 34.1792 42.976 33.8352 42.976 33.4779C42.976 33.1205 42.912 32.7765 42.784 32.4459C42.6613 32.1099 42.472 31.8219 42.216 31.5819C41.9653 31.3419 41.6427 31.1792 41.248 31.0939C41.1253 31.0672 41 31.0512 40.872 31.0459C40.744 31.0352 40.632 31.0299 40.536 31.0299H37.296V35.9259ZM49.8698 41.6619C49.0271 41.6619 48.2964 41.4752 47.6778 41.1019C47.0644 40.7285 46.5871 40.2032 46.2458 39.5259C45.9044 38.8485 45.7338 38.0539 45.7338 37.1419C45.7338 36.1979 45.9018 35.3819 46.2378 34.6939C46.5738 34.0059 47.0458 33.4752 47.6538 33.1019C48.2671 32.7285 48.9898 32.5419 49.8218 32.5419C50.6751 32.5419 51.4031 32.7392 52.0058 33.1339C52.6084 33.5232 53.0644 34.0832 53.3738 34.8139C53.6831 35.5445 53.8244 36.4165 53.7978 37.4299H52.5978V37.0139C52.5764 35.8939 52.3338 35.0485 51.8698 34.4779C51.4111 33.9072 50.7391 33.6219 49.8538 33.6219C48.9258 33.6219 48.2138 33.9232 47.7178 34.5259C47.2271 35.1285 46.9818 35.9872 46.9818 37.1019C46.9818 38.1899 47.2271 39.0352 47.7178 39.6379C48.2138 40.2352 48.9151 40.5339 49.8218 40.5339C50.4404 40.5339 50.9791 40.3925 51.4378 40.1099C51.9018 39.8219 52.2671 39.4085 52.5338 38.8699L53.6298 39.2939C53.2884 40.0459 52.7844 40.6299 52.1178 41.0459C51.4564 41.4565 50.7071 41.6619 49.8698 41.6619ZM46.5658 37.4299V36.4459H53.1658V37.4299H46.5658ZM59.1571 41.6619C58.2878 41.6619 57.5518 41.4672 56.9491 41.0779C56.3465 40.6885 55.8878 40.1525 55.5731 39.4699C55.2638 38.7819 55.1038 37.9925 55.0931 37.1019C55.1038 36.1952 55.2691 35.4005 55.5891 34.7179C55.9091 34.0299 56.3705 33.4965 56.9731 33.1179C57.5758 32.7339 58.3065 32.5419 59.1651 32.5419C60.0398 32.5419 60.7998 32.7552 61.4451 33.1819C62.0958 33.6085 62.5411 34.1925 62.7811 34.9339L61.6291 35.3019C61.4265 34.7845 61.1038 34.3845 60.6611 34.1019C60.2238 33.8139 59.7225 33.6699 59.1571 33.6699C58.5225 33.6699 57.9971 33.8165 57.5811 34.1099C57.1651 34.3979 56.8558 34.8005 56.6531 35.3179C56.4505 35.8352 56.3465 36.4299 56.3411 37.1019C56.3518 38.1365 56.5918 38.9685 57.0611 39.5979C57.5305 40.2219 58.2291 40.5339 59.1571 40.5339C59.7438 40.5339 60.2425 40.4005 60.6531 40.1339C61.0691 39.8619 61.3838 39.4672 61.5971 38.9499L62.7811 39.3019C62.4611 40.0699 61.9918 40.6565 61.3731 41.0619C60.7545 41.4619 60.0158 41.6619 59.1571 41.6619ZM70.6725 41.4219V37.0139C70.6725 36.5339 70.6272 36.0939 70.5365 35.6939C70.4458 35.2885 70.2992 34.9365 70.0965 34.6379C69.8992 34.3339 69.6405 34.0992 69.3205 33.9339C69.0058 33.7685 68.6218 33.6859 68.1685 33.6859C67.7525 33.6859 67.3845 33.7579 67.0645 33.9019C66.7498 34.0459 66.4832 34.2539 66.2645 34.5259C66.0512 34.7925 65.8885 35.1179 65.7765 35.5019C65.6645 35.8859 65.6085 36.3232 65.6085 36.8139L64.7765 36.6299C64.7765 35.7445 64.9312 35.0005 65.2405 34.3979C65.5498 33.7952 65.9765 33.3392 66.5205 33.0299C67.0645 32.7205 67.6885 32.5659 68.3925 32.5659C68.9098 32.5659 69.3605 32.6459 69.7445 32.8059C70.1338 32.9659 70.4618 33.1819 70.7285 33.4539C71.0005 33.7259 71.2192 34.0379 71.3845 34.3899C71.5498 34.7365 71.6698 35.1072 71.7445 35.5019C71.8192 35.8912 71.8565 36.2805 71.8565 36.6699V41.4219H70.6725ZM64.4245 41.4219V29.9019H65.4885V36.4059H65.6085V41.4219H64.4245ZM77.5885 41.6619C76.7458 41.6619 76.0152 41.4752 75.3965 41.1019C74.7832 40.7285 74.3058 40.2032 73.9645 39.5259C73.6232 38.8485 73.4525 38.0539 73.4525 37.1419C73.4525 36.1979 73.6205 35.3819 73.9565 34.6939C74.2925 34.0059 74.7645 33.4752 75.3725 33.1019C75.9858 32.7285 76.7085 32.5419 77.5405 32.5419C78.3938 32.5419 79.1218 32.7392 79.7245 33.1339C80.3272 33.5232 80.7832 34.0832 81.0925 34.8139C81.4018 35.5445 81.5432 36.4165 81.5165 37.4299H80.3165V37.0139C80.2952 35.8939 80.0525 35.0485 79.5885 34.4779C79.1298 33.9072 78.4578 33.6219 77.5725 33.6219C76.6445 33.6219 75.9325 33.9232 75.4365 34.5259C74.9458 35.1285 74.7005 35.9872 74.7005 37.1019C74.7005 38.1899 74.9458 39.0352 75.4365 39.6379C75.9325 40.2352 76.6338 40.5339 77.5405 40.5339C78.1592 40.5339 78.6978 40.3925 79.1565 40.1099C79.6205 39.8219 79.9858 39.4085 80.2525 38.8699L81.3485 39.2939C81.0072 40.0459 80.5032 40.6299 79.8365 41.0459C79.1752 41.4565 78.4258 41.6619 77.5885 41.6619ZM74.2845 37.4299V36.4459H80.8845V37.4299H74.2845ZM83.2919 41.4219V32.7819H84.3479V34.8619L84.1399 34.5899C84.2359 34.3339 84.3612 34.0992 84.5159 33.8859C84.6705 33.6672 84.8385 33.4885 85.0199 33.3499C85.2439 33.1525 85.5052 33.0032 85.8039 32.9019C86.1025 32.7952 86.4039 32.7339 86.7079 32.7179C87.0119 32.6965 87.2892 32.7179 87.5399 32.7819V33.8859C87.2252 33.8059 86.8812 33.7872 86.5079 33.8299C86.1345 33.8725 85.7905 34.0219 85.4759 34.2779C85.1879 34.5019 84.9719 34.7712 84.8279 35.0859C84.6839 35.3952 84.5879 35.7259 84.5399 36.0779C84.4919 36.4245 84.4679 36.7685 84.4679 37.1099V41.4219H83.2919ZM92.4852 41.6619C91.6159 41.6619 90.8799 41.4672 90.2773 41.0779C89.6746 40.6885 89.2159 40.1525 88.9013 39.4699C88.5919 38.7819 88.4319 37.9925 88.4213 37.1019C88.4319 36.1952 88.5973 35.4005 88.9173 34.7179C89.2373 34.0299 89.6986 33.4965 90.3013 33.1179C90.9039 32.7339 91.6346 32.5419 92.4933 32.5419C93.3679 32.5419 94.1279 32.7552 94.7733 33.1819C95.4239 33.6085 95.8693 34.1925 96.1093 34.9339L94.9573 35.3019C94.7546 34.7845 94.4319 34.3845 93.9893 34.1019C93.5519 33.8139 93.0506 33.6699 92.4852 33.6699C91.8506 33.6699 91.3253 33.8165 90.9093 34.1099C90.4933 34.3979 90.1839 34.8005 89.9813 35.3179C89.7786 35.8352 89.6746 36.4299 89.6693 37.1019C89.6799 38.1365 89.9199 38.9685 90.3893 39.5979C90.8586 40.2219 91.5573 40.5339 92.4852 40.5339C93.0719 40.5339 93.5706 40.4005 93.9813 40.1339C94.3973 39.8619 94.7119 39.4672 94.9253 38.9499L96.1093 39.3019C95.7893 40.0699 95.3199 40.6565 94.7013 41.0619C94.0826 41.4619 93.3439 41.6619 92.4852 41.6619ZM104.001 41.4219V37.0139C104.001 36.5339 103.955 36.0939 103.865 35.6939C103.774 35.2885 103.627 34.9365 103.425 34.6379C103.227 34.3339 102.969 34.0992 102.649 33.9339C102.334 33.7685 101.95 33.6859 101.497 33.6859C101.081 33.6859 100.713 33.7579 100.393 33.9019C100.078 34.0459 99.8113 34.2539 99.5926 34.5259C99.3793 34.7925 99.2166 35.1179 99.1046 35.5019C98.9926 35.8859 98.9366 36.3232 98.9366 36.8139L98.1046 36.6299C98.1046 35.7445 98.2593 35.0005 98.5686 34.3979C98.878 33.7952 99.3046 33.3392 99.8486 33.0299C100.393 32.7205 101.017 32.5659 101.721 32.5659C102.238 32.5659 102.689 32.6459 103.073 32.8059C103.462 32.9659 103.79 33.1819 104.057 33.4539C104.329 33.7259 104.547 34.0379 104.713 34.3899C104.878 34.7365 104.998 35.1072 105.073 35.5019C105.147 35.8912 105.185 36.2805 105.185 36.6699V41.4219H104.001ZM97.7526 41.4219V29.9019H98.8166V36.4059H98.9366V41.4219H97.7526ZM110.917 41.6619C110.074 41.6619 109.343 41.4752 108.725 41.1019C108.111 40.7285 107.634 40.2032 107.293 39.5259C106.951 38.8485 106.781 38.0539 106.781 37.1419C106.781 36.1979 106.949 35.3819 107.285 34.6939C107.621 34.0059 108.093 33.4752 108.701 33.1019C109.314 32.7285 110.037 32.5419 110.869 32.5419C111.722 32.5419 112.45 32.7392 113.053 33.1339C113.655 33.5232 114.111 34.0832 114.421 34.8139C114.73 35.5445 114.871 36.4165 114.845 37.4299H113.645V37.0139C113.623 35.8939 113.381 35.0485 112.917 34.4779C112.458 33.9072 111.786 33.6219 110.901 33.6219C109.973 33.6219 109.261 33.9232 108.765 34.5259C108.274 35.1285 108.029 35.9872 108.029 37.1019C108.029 38.1899 108.274 39.0352 108.765 39.6379C109.261 40.2352 109.962 40.5339 110.869 40.5339C111.487 40.5339 112.026 40.3925 112.485 40.1099C112.949 39.8219 113.314 39.4085 113.581 38.8699L114.677 39.2939C114.335 40.0459 113.831 40.6299 113.165 41.0459C112.503 41.4565 111.754 41.6619 110.917 41.6619ZM107.613 37.4299V36.4459H114.213V37.4299H107.613ZM116.62 41.4219V32.7819H117.676V34.8619L117.468 34.5899C117.564 34.3339 117.689 34.0992 117.844 33.8859C117.999 33.6672 118.167 33.4885 118.348 33.3499C118.572 33.1525 118.833 33.0032 119.132 32.9019C119.431 32.7952 119.732 32.7339 120.036 32.7179C120.34 32.6965 120.617 32.7179 120.868 32.7819V33.8859C120.553 33.8059 120.209 33.7872 119.836 33.8299C119.463 33.8725 119.119 34.0219 118.804 34.2779C118.516 34.5019 118.3 34.7712 118.156 35.0859C118.012 35.3952 117.916 35.7259 117.868 36.0779C117.82 36.4245 117.796 36.7685 117.796 37.1099V41.4219H116.62ZM128.893 41.6379C128.375 41.6379 127.922 41.5579 127.533 41.3979C127.149 41.2379 126.821 41.0219 126.549 40.7499C126.282 40.4779 126.066 40.1685 125.901 39.8219C125.735 39.4699 125.615 39.0992 125.541 38.7099C125.466 38.3152 125.429 37.9232 125.429 37.5339V32.7819H126.613V37.1899C126.613 37.6645 126.658 38.1045 126.749 38.5099C126.839 38.9152 126.983 39.2699 127.181 39.5739C127.383 39.8725 127.642 40.1045 127.957 40.2699C128.277 40.4352 128.663 40.5179 129.117 40.5179C129.533 40.5179 129.898 40.4459 130.213 40.3019C130.533 40.1579 130.799 39.9525 131.013 39.6859C131.231 39.4139 131.397 39.0859 131.509 38.7019C131.621 38.3125 131.677 37.8752 131.677 37.3899L132.509 37.5739C132.509 38.4592 132.354 39.2032 132.045 39.8059C131.735 40.4085 131.309 40.8645 130.765 41.1739C130.221 41.4832 129.597 41.6379 128.893 41.6379ZM131.797 41.4219V39.2939H131.677V32.7819H132.853V41.4219H131.797ZM141.329 41.4219V37.0139C141.329 36.5339 141.283 36.0939 141.193 35.6939C141.102 35.2885 140.955 34.9365 140.753 34.6379C140.555 34.3339 140.297 34.0992 139.977 33.9339C139.662 33.7685 139.278 33.6859 138.825 33.6859C138.409 33.6859 138.041 33.7579 137.721 33.9019C137.406 34.0459 137.139 34.2539 136.921 34.5259C136.707 34.7925 136.545 35.1179 136.433 35.5019C136.321 35.8859 136.265 36.3232 136.265 36.8139L135.433 36.6299C135.433 35.7445 135.587 35.0005 135.897 34.3979C136.206 33.7952 136.633 33.3392 137.177 33.0299C137.721 32.7205 138.345 32.5659 139.049 32.5659C139.566 32.5659 140.017 32.6459 140.401 32.8059C140.79 32.9659 141.118 33.1819 141.385 33.4539C141.657 33.7259 141.875 34.0379 142.041 34.3899C142.206 34.7365 142.326 35.1072 142.401 35.5019C142.475 35.8912 142.513 36.2805 142.513 36.6699V41.4219H141.329ZM135.081 41.4219V32.7819H136.145V34.9099H136.265V41.4219H135.081ZM148.198 41.6619C147.355 41.6619 146.625 41.4752 146.006 41.1019C145.393 40.7285 144.915 40.2032 144.574 39.5259C144.233 38.8485 144.062 38.0539 144.062 37.1419C144.062 36.1979 144.23 35.3819 144.566 34.6939C144.902 34.0059 145.374 33.4752 145.982 33.1019C146.595 32.7285 147.318 32.5419 148.15 32.5419C149.003 32.5419 149.731 32.7392 150.334 33.1339C150.937 33.5232 151.393 34.0832 151.702 34.8139C152.011 35.5445 152.153 36.4165 152.126 37.4299H150.926V37.0139C150.905 35.8939 150.662 35.0485 150.198 34.4779C149.739 33.9072 149.067 33.6219 148.182 33.6219C147.254 33.6219 146.542 33.9232 146.046 34.5259C145.555 35.1285 145.31 35.9872 145.31 37.1019C145.31 38.1899 145.555 39.0352 146.046 39.6379C146.542 40.2352 147.243 40.5339 148.15 40.5339C148.769 40.5339 149.307 40.3925 149.766 40.1099C150.23 39.8219 150.595 39.4085 150.862 38.8699L151.958 39.2939C151.617 40.0459 151.113 40.6299 150.446 41.0459C149.785 41.4565 149.035 41.6619 148.198 41.6619ZM144.894 37.4299V36.4459H151.494V37.4299H144.894ZM157.104 41.4219V32.7819H158.16V34.8619L157.952 34.5899C158.048 34.3339 158.174 34.0992 158.328 33.8859C158.483 33.6672 158.651 33.4885 158.832 33.3499C159.056 33.1525 159.318 33.0032 159.616 32.9019C159.915 32.7952 160.216 32.7339 160.52 32.7179C160.824 32.6965 161.102 32.7179 161.352 32.7819V33.8859C161.038 33.8059 160.694 33.7872 160.32 33.8299C159.947 33.8725 159.603 34.0219 159.288 34.2779C159 34.5019 158.784 34.7712 158.64 35.0859C158.496 35.3952 158.4 35.7259 158.352 36.0779C158.304 36.4245 158.28 36.7685 158.28 37.1099V41.4219H157.104ZM166.37 41.6619C165.527 41.6619 164.796 41.4752 164.178 41.1019C163.564 40.7285 163.087 40.2032 162.746 39.5259C162.404 38.8485 162.234 38.0539 162.234 37.1419C162.234 36.1979 162.402 35.3819 162.738 34.6939C163.074 34.0059 163.546 33.4752 164.154 33.1019C164.767 32.7285 165.49 32.5419 166.322 32.5419C167.175 32.5419 167.903 32.7392 168.506 33.1339C169.108 33.5232 169.564 34.0832 169.874 34.8139C170.183 35.5445 170.324 36.4165 170.298 37.4299H169.098V37.0139C169.076 35.8939 168.834 35.0485 168.37 34.4779C167.911 33.9072 167.239 33.6219 166.354 33.6219C165.426 33.6219 164.714 33.9232 164.218 34.5259C163.727 35.1285 163.482 35.9872 163.482 37.1019C163.482 38.1899 163.727 39.0352 164.218 39.6379C164.714 40.2352 165.415 40.5339 166.322 40.5339C166.94 40.5339 167.479 40.3925 167.938 40.1099C168.402 39.8219 168.767 39.4085 169.034 38.8699L170.13 39.2939C169.788 40.0459 169.284 40.6299 168.618 41.0459C167.956 41.4565 167.207 41.6619 166.37 41.6619ZM163.066 37.4299V36.4459H169.666V37.4299H163.066ZM175.657 41.6619C174.788 41.6619 174.052 41.4672 173.449 41.0779C172.846 40.6885 172.388 40.1525 172.073 39.4699C171.764 38.7819 171.604 37.9925 171.593 37.1019C171.604 36.1952 171.769 35.4005 172.089 34.7179C172.409 34.0299 172.87 33.4965 173.473 33.1179C174.076 32.7339 174.806 32.5419 175.665 32.5419C176.54 32.5419 177.3 32.7552 177.945 33.1819C178.596 33.6085 179.041 34.1925 179.281 34.9339L178.129 35.3019C177.926 34.7845 177.604 34.3845 177.161 34.1019C176.724 33.8139 176.222 33.6699 175.657 33.6699C175.022 33.6699 174.497 33.8165 174.081 34.1099C173.665 34.3979 173.356 34.8005 173.153 35.3179C172.95 35.8352 172.846 36.4299 172.841 37.1019C172.852 38.1365 173.092 38.9685 173.561 39.5979C174.03 40.2219 174.729 40.5339 175.657 40.5339C176.244 40.5339 176.742 40.4005 177.153 40.1339C177.569 39.8619 177.884 39.4672 178.097 38.9499L179.281 39.3019C178.961 40.0699 178.492 40.6565 177.873 41.0619C177.254 41.4619 176.516 41.6619 175.657 41.6619ZM184.354 41.6619C183.511 41.6619 182.781 41.4752 182.162 41.1019C181.549 40.7285 181.071 40.2032 180.73 39.5259C180.389 38.8485 180.218 38.0539 180.218 37.1419C180.218 36.1979 180.386 35.3819 180.722 34.6939C181.058 34.0059 181.53 33.4752 182.138 33.1019C182.751 32.7285 183.474 32.5419 184.306 32.5419C185.159 32.5419 185.887 32.7392 186.49 33.1339C187.093 33.5232 187.549 34.0832 187.858 34.8139C188.167 35.5445 188.309 36.4165 188.282 37.4299H187.082V37.0139C187.061 35.8939 186.818 35.0485 186.354 34.4779C185.895 33.9072 185.223 33.6219 184.338 33.6219C183.41 33.6219 182.698 33.9232 182.202 34.5259C181.711 35.1285 181.466 35.9872 181.466 37.1019C181.466 38.1899 181.711 39.0352 182.202 39.6379C182.698 40.2352 183.399 40.5339 184.306 40.5339C184.925 40.5339 185.463 40.3925 185.922 40.1099C186.386 39.8219 186.751 39.4085 187.018 38.8699L188.114 39.2939C187.773 40.0459 187.269 40.6299 186.602 41.0459C185.941 41.4565 185.191 41.6619 184.354 41.6619ZM181.05 37.4299V36.4459H187.65V37.4299H181.05ZM194.762 41.4219C194.276 41.5232 193.796 41.5632 193.322 41.5419C192.852 41.5205 192.431 41.4192 192.058 41.2379C191.69 41.0565 191.41 40.7739 191.218 40.3899C191.063 40.0699 190.978 39.7472 190.962 39.4219C190.951 39.0912 190.946 38.7152 190.946 38.2939V30.3819H192.114V38.2459C192.114 38.6085 192.116 38.9125 192.122 39.1579C192.132 39.3979 192.188 39.6112 192.29 39.7979C192.482 40.1552 192.786 40.3685 193.202 40.4379C193.623 40.5072 194.143 40.4912 194.762 40.3899V41.4219ZM189.098 33.7899V32.7819H194.762V33.7899H189.098ZM200.21 41.4219C199.724 41.5232 199.244 41.5632 198.77 41.5419C198.3 41.5205 197.879 41.4192 197.506 41.2379C197.138 41.0565 196.858 40.7739 196.666 40.3899C196.511 40.0699 196.426 39.7472 196.41 39.4219C196.399 39.0912 196.394 38.7152 196.394 38.2939V30.3819H197.562V38.2459C197.562 38.6085 197.564 38.9125 197.569 39.1579C197.58 39.3979 197.636 39.6112 197.738 39.7979C197.93 40.1552 198.234 40.3685 198.65 40.4379C199.071 40.5072 199.591 40.4912 200.21 40.3899V41.4219ZM194.546 33.7899V32.7819H200.21V33.7899H194.546ZM205.573 41.6619C204.73 41.6619 204 41.4752 203.381 41.1019C202.768 40.7285 202.29 40.2032 201.949 39.5259C201.608 38.8485 201.437 38.0539 201.437 37.1419C201.437 36.1979 201.605 35.3819 201.941 34.6939C202.277 34.0059 202.749 33.4752 203.357 33.1019C203.97 32.7285 204.693 32.5419 205.525 32.5419C206.378 32.5419 207.106 32.7392 207.709 33.1339C208.312 33.5232 208.768 34.0832 209.077 34.8139C209.386 35.5445 209.528 36.4165 209.501 37.4299H208.301V37.0139C208.28 35.8939 208.037 35.0485 207.573 34.4779C207.114 33.9072 206.442 33.6219 205.557 33.6219C204.629 33.6219 203.917 33.9232 203.421 34.5259C202.93 35.1285 202.685 35.9872 202.685 37.1019C202.685 38.1899 202.93 39.0352 203.421 39.6379C203.917 40.2352 204.618 40.5339 205.525 40.5339C206.144 40.5339 206.682 40.3925 207.141 40.1099C207.605 39.8219 207.97 39.4085 208.237 38.8699L209.333 39.2939C208.992 40.0459 208.488 40.6299 207.821 41.0459C207.16 41.4565 206.41 41.6619 205.573 41.6619ZM202.269 37.4299V36.4459H208.869V37.4299H202.269ZM210.804 43.0939L210.876 42.5099C211.089 42.5259 211.244 42.4832 211.34 42.3819C211.436 42.2805 211.494 42.1445 211.516 41.9739C211.537 41.8032 211.542 41.6192 211.532 41.4219H210.804V39.7339H212.172V41.7419C212.172 42.2325 212.046 42.6005 211.796 42.8459C211.55 43.0912 211.22 43.1739 210.804 43.0939ZM221.721 41.6379C221.204 41.6379 220.75 41.5579 220.361 41.3979C219.977 41.2379 219.649 41.0219 219.377 40.7499C219.11 40.4779 218.894 40.1685 218.729 39.8219C218.564 39.4699 218.444 39.0992 218.369 38.7099C218.294 38.3152 218.257 37.9232 218.257 37.5339V32.7819H219.441V37.1899C219.441 37.6645 219.486 38.1045 219.577 38.5099C219.668 38.9152 219.812 39.2699 220.009 39.5739C220.212 39.8725 220.47 40.1045 220.785 40.2699C221.105 40.4352 221.492 40.5179 221.945 40.5179C222.361 40.5179 222.726 40.4459 223.041 40.3019C223.361 40.1579 223.628 39.9525 223.841 39.6859C224.06 39.4139 224.225 39.0859 224.337 38.7019C224.449 38.3125 224.505 37.8752 224.505 37.3899L225.337 37.5739C225.337 38.4592 225.182 39.2032 224.873 39.8059C224.564 40.4085 224.137 40.8645 223.593 41.1739C223.049 41.4832 222.425 41.6379 221.721 41.6379ZM224.625 41.4219V39.2939H224.505V32.7819H225.681V41.4219H224.625ZM234.157 41.4219V37.0139C234.157 36.5339 234.112 36.0939 234.021 35.6939C233.93 35.2885 233.784 34.9365 233.581 34.6379C233.384 34.3339 233.125 34.0992 232.805 33.9339C232.49 33.7685 232.106 33.6859 231.653 33.6859C231.237 33.6859 230.869 33.7579 230.549 33.9019C230.234 34.0459 229.968 34.2539 229.749 34.5259C229.536 34.7925 229.373 35.1179 229.261 35.5019C229.149 35.8859 229.093 36.3232 229.093 36.8139L228.261 36.6299C228.261 35.7445 228.416 35.0005 228.725 34.3979C229.034 33.7952 229.461 33.3392 230.005 33.0299C230.549 32.7205 231.173 32.5659 231.877 32.5659C232.394 32.5659 232.845 32.6459 233.229 32.8059C233.618 32.9659 233.946 33.1819 234.213 33.4539C234.485 33.7259 234.704 34.0379 234.869 34.3899C235.034 34.7365 235.154 35.1072 235.229 35.5019C235.304 35.8912 235.341 36.2805 235.341 36.6699V41.4219H234.157ZM227.909 41.4219V32.7819H228.973V34.9099H229.093V41.4219H227.909ZM240.78 31.1419V29.8219H241.956V31.1419H240.78ZM240.78 41.4219V32.7819H241.956V41.4219H240.78ZM250.594 41.4219V37.0139C250.594 36.5339 250.549 36.0939 250.458 35.6939C250.368 35.2885 250.221 34.9365 250.018 34.6379C249.821 34.3339 249.562 34.0992 249.242 33.9339C248.928 33.7685 248.544 33.6859 248.09 33.6859C247.674 33.6859 247.306 33.7579 246.986 33.9019C246.672 34.0459 246.405 34.2539 246.186 34.5259C245.973 34.7925 245.81 35.1179 245.698 35.5019C245.586 35.8859 245.53 36.3232 245.53 36.8139L244.698 36.6299C244.698 35.7445 244.853 35.0005 245.162 34.3979C245.472 33.7952 245.898 33.3392 246.442 33.0299C246.986 32.7205 247.61 32.5659 248.314 32.5659C248.832 32.5659 249.282 32.6459 249.666 32.8059C250.056 32.9659 250.384 33.1819 250.65 33.4539C250.922 33.7259 251.141 34.0379 251.306 34.3899C251.472 34.7365 251.592 35.1072 251.666 35.5019C251.741 35.8912 251.778 36.2805 251.778 36.6699V41.4219H250.594ZM244.346 41.4219V32.7819H245.41V34.9099H245.53V41.4219H244.346ZM257.286 45.5019C256.844 45.5019 256.406 45.4352 255.974 45.3019C255.548 45.1739 255.153 44.9685 254.79 44.6859C254.428 44.4085 254.124 44.0459 253.878 43.5979L254.942 43.0059C255.182 43.4859 255.518 43.8299 255.95 44.0379C256.388 44.2512 256.833 44.3579 257.286 44.3579C257.91 44.3579 258.414 44.2405 258.798 44.0059C259.188 43.7765 259.47 43.4352 259.646 42.9819C259.822 42.5285 259.908 41.9632 259.902 41.2859V38.9819H260.038V32.7819H261.086V41.3019C261.086 41.5472 261.078 41.7819 261.062 42.0059C261.052 42.2352 261.028 42.4592 260.99 42.6779C260.889 43.3232 260.678 43.8539 260.358 44.2699C260.044 44.6859 259.628 44.9952 259.11 45.1979C258.598 45.4005 257.99 45.5019 257.286 45.5019ZM257.206 41.6619C256.401 41.6619 255.713 41.4619 255.142 41.0619C254.572 40.6565 254.134 40.1099 253.83 39.4219C253.526 38.7339 253.374 37.9579 253.374 37.0939C253.374 36.2352 253.524 35.4619 253.822 34.7739C254.126 34.0859 254.561 33.5419 255.126 33.1419C255.692 32.7419 256.369 32.5419 257.158 32.5419C257.969 32.5419 258.652 32.7392 259.206 33.1339C259.761 33.5285 260.18 34.0699 260.462 34.7579C260.75 35.4405 260.894 36.2192 260.894 37.0939C260.894 37.9525 260.753 38.7285 260.47 39.4219C260.188 40.1099 259.772 40.6565 259.222 41.0619C258.673 41.4619 258.001 41.6619 257.206 41.6619ZM257.326 40.5659C257.94 40.5659 258.446 40.4165 258.846 40.1179C259.246 39.8192 259.545 39.4085 259.742 38.8859C259.94 38.3579 260.038 37.7605 260.038 37.0939C260.038 36.4165 259.94 35.8192 259.742 35.3019C259.545 34.7792 259.246 34.3712 258.846 34.0779C258.452 33.7845 257.953 33.6379 257.35 33.6379C256.732 33.6379 256.22 33.7899 255.814 34.0939C255.409 34.3979 255.108 34.8112 254.91 35.3339C254.718 35.8565 254.622 36.4432 254.622 37.0939C254.622 37.7499 254.721 38.3419 254.918 38.8699C255.121 39.3925 255.422 39.8059 255.822 40.1099C256.222 40.4139 256.724 40.5659 257.326 40.5659ZM263.323 41.4219V32.7819H264.379V34.8619L264.171 34.5899C264.267 34.3339 264.392 34.0992 264.547 33.8859C264.702 33.6672 264.87 33.4885 265.051 33.3499C265.275 33.1525 265.536 33.0032 265.835 32.9019C266.134 32.7952 266.435 32.7339 266.739 32.7179C267.043 32.6965 267.32 32.7179 267.571 32.7819V33.8859C267.256 33.8059 266.912 33.7872 266.539 33.8299C266.166 33.8725 265.822 34.0219 265.507 34.2779C265.219 34.5019 265.003 34.7712 264.859 35.0859C264.715 35.3952 264.619 35.7259 264.571 36.0779C264.523 36.4245 264.499 36.7685 264.499 37.1099V41.4219H263.323ZM273.377 31.4219H272.369L273.321 28.9419H274.329L273.377 31.4219ZM272.745 41.6619C271.902 41.6619 271.171 41.4752 270.553 41.1019C269.939 40.7285 269.462 40.2032 269.121 39.5259C268.779 38.8485 268.609 38.0539 268.609 37.1419C268.609 36.1979 268.777 35.3819 269.113 34.6939C269.449 34.0059 269.921 33.4752 270.529 33.1019C271.142 32.7285 271.865 32.5419 272.697 32.5419C273.55 32.5419 274.278 32.7392 274.881 33.1339C275.483 33.5232 275.939 34.0832 276.249 34.8139C276.558 35.5445 276.699 36.4165 276.673 37.4299H275.473V37.0139C275.451 35.8939 275.209 35.0485 274.745 34.4779C274.286 33.9072 273.614 33.6219 272.729 33.6219C271.801 33.6219 271.089 33.9232 270.593 34.5259C270.102 35.1285 269.857 35.9872 269.857 37.1019C269.857 38.1899 270.102 39.0352 270.593 39.6379C271.089 40.2352 271.79 40.5339 272.697 40.5339C273.315 40.5339 273.854 40.3925 274.313 40.1099C274.777 39.8219 275.142 39.4085 275.409 38.8699L276.505 39.2939C276.163 40.0459 275.659 40.6299 274.993 41.0459C274.331 41.4565 273.582 41.6619 272.745 41.6619ZM269.441 37.4299V36.4459H276.041V37.4299H269.441ZM281.8 41.6619C280.995 41.6619 280.307 41.4619 279.736 41.0619C279.165 40.6565 278.728 40.1099 278.424 39.4219C278.12 38.7339 277.968 37.9579 277.968 37.0939C277.968 36.2352 278.117 35.4619 278.416 34.7739C278.72 34.0859 279.155 33.5419 279.72 33.1419C280.285 32.7419 280.963 32.5419 281.752 32.5419C282.563 32.5419 283.245 32.7392 283.8 33.1339C284.355 33.5285 284.773 34.0699 285.056 34.7579C285.344 35.4405 285.488 36.2192 285.488 37.0939C285.488 37.9525 285.347 38.7285 285.064 39.4219C284.781 40.1099 284.365 40.6565 283.816 41.0619C283.267 41.4619 282.595 41.6619 281.8 41.6619ZM281.92 40.5659C282.533 40.5659 283.04 40.4165 283.44 40.1179C283.84 39.8192 284.139 39.4085 284.336 38.8859C284.533 38.3579 284.632 37.7605 284.632 37.0939C284.632 36.4165 284.533 35.8192 284.336 35.3019C284.139 34.7792 283.84 34.3712 283.44 34.0779C283.045 33.7845 282.547 33.6379 281.944 33.6379C281.325 33.6379 280.813 33.7899 280.408 34.0939C280.003 34.3979 279.701 34.8112 279.504 35.3339C279.312 35.8565 279.216 36.4432 279.216 37.0939C279.216 37.7499 279.315 38.3419 279.512 38.8699C279.715 39.3925 280.016 39.8059 280.416 40.1099C280.816 40.4139 281.317 40.5659 281.92 40.5659ZM284.632 41.4219V34.9179H284.504V29.9019H285.688V41.4219H284.632ZM288.093 31.1419V29.8219H289.269V31.1419H288.093ZM288.093 41.4219V32.7819H289.269V41.4219H288.093ZM295.323 41.6619C294.48 41.6619 293.75 41.4752 293.131 41.1019C292.518 40.7285 292.04 40.2032 291.699 39.5259C291.358 38.8485 291.187 38.0539 291.187 37.1419C291.187 36.1979 291.355 35.3819 291.691 34.6939C292.027 34.0059 292.499 33.4752 293.107 33.1019C293.72 32.7285 294.443 32.5419 295.275 32.5419C296.128 32.5419 296.856 32.7392 297.459 33.1339C298.062 33.5232 298.518 34.0832 298.827 34.8139C299.136 35.5445 299.278 36.4165 299.251 37.4299H298.051V37.0139C298.03 35.8939 297.787 35.0485 297.323 34.4779C296.864 33.9072 296.192 33.6219 295.307 33.6219C294.379 33.6219 293.667 33.9232 293.171 34.5259C292.68 35.1285 292.435 35.9872 292.435 37.1019C292.435 38.1899 292.68 39.0352 293.171 39.6379C293.667 40.2352 294.368 40.5339 295.275 40.5339C295.894 40.5339 296.432 40.3925 296.891 40.1099C297.355 39.8219 297.72 39.4085 297.987 38.8699L299.083 39.2939C298.742 40.0459 298.238 40.6299 297.571 41.0459C296.91 41.4565 296.16 41.6619 295.323 41.6619ZM292.019 37.4299V36.4459H298.619V37.4299H292.019ZM307.032 41.4219V37.0139C307.032 36.5339 306.987 36.0939 306.896 35.6939C306.805 35.2885 306.659 34.9365 306.456 34.6379C306.259 34.3339 306 34.0992 305.68 33.9339C305.365 33.7685 304.981 33.6859 304.528 33.6859C304.112 33.6859 303.744 33.7579 303.424 33.9019C303.109 34.0459 302.843 34.2539 302.624 34.5259C302.411 34.7925 302.248 35.1179 302.136 35.5019C302.024 35.8859 301.968 36.3232 301.968 36.8139L301.136 36.6299C301.136 35.7445 301.291 35.0005 301.6 34.3979C301.909 33.7952 302.336 33.3392 302.88 33.0299C303.424 32.7205 304.048 32.5659 304.752 32.5659C305.269 32.5659 305.72 32.6459 306.104 32.8059C306.493 32.9659 306.821 33.1819 307.088 33.4539C307.36 33.7259 307.579 34.0379 307.744 34.3899C307.909 34.7365 308.029 35.1072 308.104 35.5019C308.179 35.8912 308.216 36.2805 308.216 36.6699V41.4219H307.032ZM300.784 41.4219V32.7819H301.848V34.9099H301.968V41.4219H300.784ZM314.996 41.4219C314.511 41.5232 314.031 41.5632 313.556 41.5419C313.087 41.5205 312.665 41.4192 312.292 41.2379C311.924 41.0565 311.644 40.7739 311.452 40.3899C311.297 40.0699 311.212 39.7472 311.196 39.4219C311.185 39.0912 311.18 38.7152 311.18 38.2939V30.3819H312.348V38.2459C312.348 38.6085 312.351 38.9125 312.356 39.1579C312.367 39.3979 312.423 39.6112 312.524 39.7979C312.716 40.1552 313.02 40.3685 313.436 40.4379C313.857 40.5072 314.377 40.4912 314.996 40.3899V41.4219ZM309.332 33.7899V32.7819H314.996V33.7899H309.332ZM316.538 43.0939L316.61 42.5099C316.823 42.5259 316.978 42.4832 317.074 42.3819C317.17 42.2805 317.229 42.1445 317.25 41.9739C317.271 41.8032 317.277 41.6192 317.266 41.4219H316.538V39.7339H317.906V41.7419C317.906 42.2325 317.781 42.6005 317.53 42.8459C317.285 43.0912 316.954 43.1739 316.538 43.0939ZM324.375 41.4219V40.0539H325.743V41.4219H324.375ZM328.438 41.4219V40.0539H329.806V41.4219H328.438ZM332.5 41.4219V40.0539H333.868V41.4219H332.5Z" fill="#7A7A7A"/>
</svg>
